<svg xmlns="http://www.w3.org/2000/svg" viewBox="0 0 48 48" role="img" aria-label="WhatsApp">
  <path fill="#fff" fill-rule="evenodd" d="M24 4C13.51 4 5 12.51 5 23c0 3.39.9 6.57 2.47 9.3L5 43l11.05-2.88A18.93 18.93 0 0024 42c10.49 0 19-8.51 19-19S34.49 4 24 4zm-4.73 12.05c-.36-.8-.73-.82-1.07-.83l-.91-.01c-.32 0-.83.12-1.27.59s-1.66 1.62-1.66 3.96 1.7 4.59 1.94 4.9c.24.32 3.29 5.26 8.1 7.16 4 1.58 4.82 1.27 5.69 1.19s2.81-1.15 3.2-2.26c.4-1.1.4-2.06.28-2.26-.12-.2-.44-.32-.91-.55s-2.81-1.39-3.24-1.54c-.44-.16-.75-.24-1.07.24-.32.47-1.23 1.54-1.5 1.86-.28.32-.55.36-1.03.12s-2-.74-3.82-2.35c-1.41-1.26-2.36-2.81-2.64-3.29-.28-.47-.03-.73.21-.97.21-.21.47-.55.71-.83.24-.28.32-.47.47-.79.16-.32.08-.6-.04-.83s-1.04-2.56-1.46-3.47z" clip-rule="evenodd"/>
</svg>
