<svg xmlns="http://www.w3.org/2000/svg" viewBox="0 0 32 32" role="img" aria-label="WhatsApp">
  <path fill="#fff" d="M19.11 17.2c-.27-.14-1.6-.8-1.84-.89-.25-.09-.43-.14-.61.14-.18.27-.7.89-.86 1.07-.16.18-.31.2-.58.07-.27-.14-1.14-.42-2.16-1.35-.8-.71-1.34-1.58-1.5-1.84-.16-.27-.02-.41.12-.54.12-.12.27-.31.41-.47.13-.16.18-.27.27-.45.09-.18.05-.34-.02-.48-.07-.14-.61-1.48-.84-2.03-.22-.53-.45-.46-.61-.47-.16-.01-.34-.01-.52-.01-.18 0-.48.07-.73.34-.25.27-.95.93-.95 2.26 0 1.32.98 2.6 1.11 2.78.13.18 1.91 2.91 4.62 4.08.65.28 1.16.45 1.56.58.66.21 1.26.18 1.74.11.53-.08 1.6-.65 1.83-1.28.23-.63.23-1.17.16-1.28-.07-.11-.25-.18-.52-.32Z"/>
  <path fill="#fff" d="M16 3C8.82 3 3 8.82 3 16c0 2.29.6 4.45 1.64 6.33L3 29l6.89-1.6A12.94 12.94 0 0 0 16 29c7.18 0 13-5.82 13-13S23.18 3 16 3Zm0 23.68c-2.02 0-3.99-.54-5.71-1.56l-.41-.24-4.09.95.98-3.99-.27-.41a10.67 10.67 0 1 1 9.5 5.25Z"/>
</svg>
